<svg version="1.1" id="Layer_1" xmlns="http://www.w3.org/2000/svg" xmlns:xlink="http://www.w3.org/1999/xlink" x="0px" y="0px"
	 width="100%" viewBox="0 0 1024 1024" enable-background="new 0 0 1024 1024" xml:space="preserve">
<path fill="#F280FF" opacity="1.000000" stroke="none" 
	d="
M442.000000,0.999999 
	C477.354218,1.000000 512.708435,1.000000 548.854492,1.240210 
	C556.894104,2.368647 564.282532,2.641234 571.363892,4.258535 
	C594.181641,9.469856 617.115479,14.382804 639.583557,20.869015 
	C678.288147,32.042458 714.456116,49.255657 748.725403,70.342911 
	C795.312073,99.009483 836.087585,134.514435 870.888855,176.679382 
	C898.860352,210.569275 922.040161,247.546707 939.915405,287.787720 
	C950.655640,311.966492 960.194641,336.587006 966.200134,362.373749 
	C970.945557,382.750000 975.022583,403.298950 978.737183,423.890137 
	C980.287720,432.485229 980.129883,441.388489 980.427429,450.077759 
	C978.714905,448.834534 977.230896,447.758453 975.947205,446.481079 
	C964.964905,435.552551 954.017822,424.588684 943.062317,413.633240 
	C887.106750,357.678253 831.160217,301.714142 775.145630,245.818268 
	C773.806396,244.481934 771.708801,243.905533 769.656372,242.842865 
	C768.666321,241.778015 767.969421,240.855759 767.305420,239.910400 
	C754.034668,221.015823 735.829529,211.004364 712.773743,210.975174 
	C596.804871,210.828339 480.835693,210.940491 364.866760,210.847290 
	C355.149750,210.839478 345.896820,212.615875 337.354980,216.965271 
	C311.802124,229.976425 298.211731,250.882492 298.133057,279.703827 
	C297.936981,351.517426 298.068756,423.331970 298.048309,495.146118 
	C298.047638,497.467133 297.822083,499.788055 297.375671,502.045593 
	C295.671936,500.799042 294.212952,499.697235 292.928619,498.419861 
	C283.729156,489.269836 274.616882,480.031219 265.335541,470.965454 
	C263.906158,469.569275 261.751434,468.915710 259.726196,467.627106 
	C255.237000,466.859192 250.945862,465.912689 246.671860,465.984741 
	C223.142303,466.381348 204.416809,487.352478 204.259766,509.936920 
	C203.916733,559.264893 204.058334,608.597290 204.288712,657.926575 
	C204.312973,663.118408 205.778381,668.454102 207.396240,673.457520 
	C211.185852,685.177307 219.776138,692.842834 229.938995,698.854858 
	C229.444672,699.108215 229.180786,699.266113 228.916901,699.423950 
	C229.306519,699.603333 229.696136,699.782654 230.052368,699.974243 
	C230.018967,699.986572 230.037247,699.917786 230.058929,700.268127 
	C230.588440,701.456299 230.953186,702.436584 231.625046,703.110962 
	C246.898407,718.441589 262.181702,733.762573 277.557556,748.989990 
	C278.618866,750.041138 280.416870,750.348389 281.971436,751.456665 
	C282.079773,753.887146 281.848541,755.901001 282.157227,757.828430 
	C282.568878,760.399292 283.400177,762.902893 283.996765,765.748779 
	C284.024017,767.254883 283.624481,768.928467 284.261688,769.566162 
	C290.865967,776.176208 297.637299,782.619263 304.260376,789.429199 
	C303.219391,792.616394 303.902191,794.725403 306.403717,796.704773 
	C307.711823,797.739746 308.766602,799.966614 308.744171,801.639221 
	C308.688782,805.771301 308.329987,809.993164 307.301910,813.974670 
	C306.853302,815.712097 304.578430,818.047974 302.940765,818.213745 
	C297.347229,818.779907 291.661926,818.660950 286.026794,818.431213 
	C284.698822,818.376953 282.714172,817.144409 282.258850,815.975830 
	C280.327240,811.017456 284.719543,799.233459 288.871552,795.899719 
	C290.428619,794.649597 292.118622,791.986084 291.777283,790.387756 
	C291.425140,788.738525 288.733948,786.522827 286.964722,786.427063 
	C279.352112,786.015076 271.682922,785.992920 264.077209,786.488098 
	C261.609650,786.648743 259.272980,788.819763 257.273560,789.863892 
	C254.121002,789.238098 250.684891,789.213806 247.861176,787.886536 
	C232.108963,780.482666 207.699265,786.963440 195.515045,804.012451 
	C186.850708,816.136230 185.046753,829.604675 186.884842,844.212280 
	C186.464355,845.943115 185.906418,847.505005 186.245163,848.839111 
	C189.468658,861.535278 196.791473,870.649963 209.868958,873.903809 
	C220.530045,876.556396 230.941528,875.185303 240.988541,870.606506 
	C242.720108,869.817261 245.533264,869.302917 246.906952,870.162903 
	C256.734558,876.315613 267.133148,874.137085 277.402130,872.542542 
	C281.851410,871.851685 283.310974,868.369568 282.056580,863.681396 
	C281.345856,861.364868 280.633301,859.354675 279.805817,857.392944 
	C279.025635,855.543457 277.592377,853.797607 277.406006,851.911377 
	C277.150330,849.323486 277.799805,846.646118 278.398743,843.907654 
	C280.931183,836.542358 286.416718,835.169434 292.984070,836.026611 
	C296.673767,836.508301 300.318665,837.333435 304.019775,838.420532 
	C303.335693,843.208984 302.916809,847.662476 301.760834,851.915710 
	C301.230621,853.866516 299.598694,856.025757 297.855499,857.028748 
	C294.648560,858.874023 293.281982,861.087891 294.118042,865.087280 
	C293.499390,869.236877 295.064362,872.022034 298.654877,872.561523 
	C304.005554,873.365601 309.463470,873.602844 314.884766,873.749817 
	C320.725983,873.908325 326.587830,873.877197 332.421173,873.564697 
	C336.815063,873.329407 341.312714,872.998535 345.513336,871.817810 
	C349.011993,870.834351 350.905640,868.011230 349.101532,863.706909 
	C351.047302,859.749756 347.981415,858.724792 345.976868,856.814880 
	C350.006592,850.014282 354.840179,848.611084 365.365234,851.100952 
	C368.191650,853.226624 370.732666,855.180176 373.056671,857.405273 
	C367.423004,862.260742 367.708252,864.717834 374.366547,867.019409 
	C377.022827,867.937622 380.068176,867.730103 383.006653,868.370361 
	C385.335693,870.502319 387.594482,872.298950 389.929932,874.429932 
	C391.278534,876.278137 392.445770,877.896484 393.837799,879.290344 
	C422.622620,908.113708 451.441620,936.902954 480.213776,965.739014 
	C481.703186,967.231812 482.836243,969.080200 483.664429,970.844727 
	C456.038696,970.926636 428.883667,970.951782 401.728882,970.889221 
	C398.916840,970.882751 396.057343,970.594055 393.302185,970.032471 
	C365.898529,964.447021 339.089203,956.715759 313.114777,946.383362 
	C276.531494,931.830688 241.985245,913.486023 209.765854,890.668518 
	C187.156357,874.656616 165.872986,857.115234 146.401581,837.529297 
	C133.179901,824.229919 121.047638,809.808716 108.899933,795.488953 
	C87.829720,770.651489 70.142624,743.411377 55.887367,714.223938 
	C45.042290,692.018738 35.175915,669.191467 26.897902,645.921021 
	C19.972042,626.451660 15.033680,606.129211 10.956307,585.834778 
	C7.074171,566.512085 5.473885,546.732788 2.794424,527.164612 
	C2.417618,524.412720 1.608830,521.720093 0.999999,519.000000 
	C1.000000,502.645782 1.000000,486.291534 1.365588,469.327515 
	C2.090681,462.104401 2.450186,455.491058 2.829125,448.562378 
	C2.850099,447.825775 2.851640,447.404602 3.124190,446.687958 
	C3.835592,441.214783 4.275985,436.037018 4.757351,430.455170 
	C4.833976,428.697052 4.869628,427.343079 5.175625,425.726685 
	C5.858579,422.258606 6.271187,419.052948 6.727897,415.462708 
	C6.808600,414.046875 6.845202,413.015686 7.173257,411.746521 
	C7.854756,408.949585 8.244802,406.390564 8.680759,403.475586 
	C8.749258,402.403046 8.771847,401.686462 9.095233,400.743927 
	C9.786906,398.280090 10.177782,396.042175 10.626081,393.424042 
	C10.735376,392.020020 10.787250,390.996216 11.172308,389.792419 
	C11.863942,387.678009 12.222394,385.743530 12.633251,383.455627 
	C12.720704,382.389252 12.755751,381.676331 13.103153,380.815247 
	C13.650231,379.111664 13.884953,377.556183 14.143415,375.656494 
	C14.218454,374.624084 14.269754,373.935944 14.601079,373.095276 
	C15.281008,371.294922 15.680911,369.647064 16.107080,367.653870 
	C16.188585,366.618103 16.243822,365.927673 16.583603,365.091034 
	C17.282911,363.296204 17.697678,361.647614 18.136250,359.700012 
	C18.188347,359.002075 18.216639,358.603180 18.554831,358.044800 
	C21.803993,348.534210 24.743256,339.183075 27.735741,329.526550 
	C27.833685,328.810516 27.878407,328.399841 28.235783,327.808105 
	C30.219723,323.016571 31.891012,318.406128 33.617775,313.492920 
	C33.713123,312.782074 33.753006,312.373993 34.114349,311.806519 
	C35.328583,309.097900 36.221348,306.548645 37.152676,303.710815 
	C37.238811,303.036987 37.286392,302.651733 37.601852,302.151794 
	C38.286316,301.024506 38.702904,300.011902 39.157551,298.711914 
	C39.243931,298.040985 39.292255,297.657440 39.650890,297.137024 
	C40.638878,296.109863 41.532303,295.312775 41.962692,294.315796 
	C52.790115,269.234558 65.582680,245.222687 80.802628,222.517319 
	C81.307144,221.764679 81.359161,220.708710 81.754562,219.470032 
	C83.619064,216.460022 85.351120,213.774124 87.413544,211.005661 
	C89.870255,207.652664 91.996605,204.382233 94.121101,201.073181 
	C94.119247,201.034546 94.143028,201.115448 94.467590,201.034821 
	C96.150986,198.940674 97.509834,196.927139 99.011993,194.679962 
	C99.464493,193.993958 99.773666,193.541580 100.412216,193.011871 
	C104.791580,187.597778 108.841568,182.261017 113.129669,176.744080 
	C113.957520,175.755798 114.547241,174.947708 115.461792,174.057129 
	C117.152924,172.290436 118.519226,170.606262 119.956726,168.731018 
	C120.027924,168.539978 120.149536,168.150772 120.475937,168.070663 
	C122.498573,165.968948 124.194801,163.947342 126.044579,161.701141 
	C126.523438,161.040741 126.848755,160.604919 127.494751,160.074188 
	C132.831177,154.622086 137.846909,149.264893 143.056305,143.654999 
	C144.469879,142.223694 145.689789,141.045090 147.256195,139.854034 
	C152.791916,134.619385 157.981155,129.397202 163.397614,124.025391 
	C164.059097,123.548737 164.493347,123.221718 165.272919,122.878540 
	C167.464279,120.959999 169.310349,119.057625 171.349884,117.093506 
	C171.543335,117.031754 171.923019,116.887634 172.266632,116.873894 
	C174.119400,115.284874 175.628540,113.709587 177.391174,111.969727 
	C178.404388,111.167206 179.164124,110.529251 180.276428,109.875565 
	C185.780228,105.599007 190.931427,101.338165 196.268341,96.868965 
	C196.941269,96.398117 197.428467,96.135628 198.266632,95.863564 
	C200.450150,94.283394 202.282700,92.712784 204.070129,91.126953 
	C204.025009,91.111717 204.113129,91.122757 204.469696,91.090057 
	C207.916199,88.735191 211.006134,86.413025 214.385544,84.000320 
	C215.470840,83.297455 216.266678,82.685127 217.410583,82.018417 
	C219.137360,80.950394 220.516098,79.936745 222.125168,78.851028 
	C222.355499,78.778954 222.820511,78.649452 223.175934,78.697769 
	C224.132401,78.494225 224.793961,78.332909 225.325745,77.977455 
	C245.966003,64.181160 267.688416,52.355179 290.269592,42.059544 
	C293.750244,40.472569 296.946472,38.261734 300.562347,36.308334 
	C301.233765,36.228851 301.617065,36.180454 302.217224,36.306774 
	C303.382690,35.773270 304.331299,35.065048 305.567108,34.322807 
	C306.236420,34.237965 306.618530,34.187145 307.246948,34.315506 
	C309.983063,33.260555 312.472900,32.026428 315.270447,30.773464 
	C315.984222,30.691193 316.390289,30.627760 317.171936,30.635044 
	C322.028442,28.782045 326.509338,26.858334 331.298767,24.906116 
	C332.015167,24.811958 332.423035,24.746304 333.216736,24.727070 
	C340.834930,22.545162 348.089142,20.384041 355.285889,18.046024 
	C357.345367,17.376949 359.238495,16.195688 361.506897,15.230286 
	C362.204041,15.178812 362.602203,15.146339 363.246643,15.313152 
	C365.075775,14.777109 366.658661,14.041780 368.586273,13.280629 
	C369.620850,13.208940 370.310669,13.163070 371.246002,13.317019 
	C373.080536,12.791639 374.669556,12.066444 376.601440,11.311493 
	C377.630066,11.224916 378.315887,11.168095 379.258423,11.317753 
	C380.997498,10.949178 382.479828,10.374122 384.319641,9.797342 
	C385.387512,9.722738 386.097870,9.649859 387.188660,9.687842 
	C389.370087,9.140721 391.171082,8.482738 393.357605,7.827712 
	C394.766388,7.753711 395.789703,7.676756 397.211853,7.706472 
	C399.729492,7.141444 401.848267,6.469743 404.353882,5.805840 
	C405.768158,5.745827 406.795593,5.678017 408.229797,5.716408 
	C411.082520,5.156449 413.528412,4.490289 416.333801,3.829744 
	C417.409882,3.785128 418.126465,3.734896 419.284363,3.780894 
	C427.150421,2.918082 434.575226,1.959040 442.000000,0.999999 
z"/>
<path fill="#FFFFFF" opacity="1.000000" stroke="none" 
	d="
M0.999999,519.468628 
	C1.608830,521.720093 2.417618,524.412720 2.794424,527.164612 
	C5.473885,546.732788 7.074171,566.512085 10.956307,585.834778 
	C15.033680,606.129211 19.972042,626.451660 26.897902,645.921021 
	C35.175915,669.191467 45.042290,692.018738 55.887367,714.223938 
	C70.142624,743.411377 87.829720,770.651489 108.899933,795.488953 
	C121.047638,809.808716 133.179901,824.229919 146.401581,837.529297 
	C165.872986,857.115234 187.156357,874.656616 209.765854,890.668518 
	C241.985245,913.486023 276.531494,931.830688 313.114777,946.383362 
	C339.089203,956.715759 365.898529,964.447021 393.302185,970.032471 
	C396.057343,970.594055 398.916840,970.882751 401.728882,970.889221 
	C428.883667,970.951782 456.038696,970.926636 484.118073,970.904297 
	C517.872742,970.894043 550.703003,970.913391 583.533264,970.898438 
	C585.358337,970.897583 587.209900,970.760681 589.004395,970.438354 
	C617.362244,965.343689 644.806213,956.968628 671.542053,946.418152 
	C721.091003,926.865173 766.245239,899.875916 807.148010,865.658752 
	C839.660034,838.460754 868.192261,807.633545 892.660217,773.116455 
	C927.876831,723.436401 953.183533,669.129211 968.183533,609.982300 
	C975.605103,580.717712 980.266785,551.021057 982.452637,521.047302 
	C983.927307,500.826691 982.711853,480.409882 982.790588,459.665405 
	C982.343689,457.075073 981.805908,454.900116 981.231812,452.397339 
	C981.046631,451.430237 980.897705,450.790955 980.748779,450.151642 
	C980.129883,441.388489 980.287720,432.485229 978.737183,423.890137 
	C975.022583,403.298950 970.945557,382.750000 966.200134,362.373749 
	C960.194641,336.587006 950.655640,311.966492 939.915405,287.787720 
	C922.040161,247.546707 898.860352,210.569275 870.888855,176.679382 
	C836.087585,134.514435 795.312073,99.009483 748.725403,70.342911 
	C714.456116,49.255657 678.288147,32.042458 639.583557,20.869015 
	C617.115479,14.382804 594.181641,9.469856 571.363892,4.258535 
	C564.282532,2.641234 556.894104,2.368647 549.323120,1.240210 
	C707.643799,1.000000 866.287598,1.000000 1024.965698,1.000000 
	C1024.965698,342.261322 1024.965698,683.522644 1024.965698,1024.891968 
	C683.787903,1024.891968 342.575775,1024.891968 1.000000,1024.891968 
	C1.000000,856.645935 1.000000,688.291626 0.999999,519.468628 
z"/>
<path fill="#FFFEFF" opacity="1.000000" stroke="none" 
	d="
M37.333969,302.266479 
	C37.286392,302.651733 37.238811,303.036987 36.839325,303.870789 
	C35.589237,306.868195 34.691063,309.417023 33.792889,311.965881 
	C33.753006,312.373993 33.713123,312.782074 33.316238,313.622131 
	C31.280535,318.699097 29.601835,323.344116 27.923132,327.989166 
	C27.878407,328.399841 27.833685,328.810516 27.412739,329.643677 
	C24.105986,339.445496 21.175457,348.824890 18.244930,358.204254 
	C18.216639,358.603180 18.188347,359.002075 17.811895,359.883606 
	C17.075514,361.989899 16.687290,363.613586 16.299065,365.237244 
	C16.243822,365.927673 16.188585,366.618103 15.783209,367.836487 
	C15.062401,369.992218 14.691730,371.619995 14.321056,373.247772 
	C14.269754,373.935944 14.218454,374.624084 13.838319,375.814545 
	C13.269922,377.865692 13.030361,379.414520 12.790800,380.963379 
	C12.755751,381.676331 12.720704,382.389252 12.336031,383.593872 
	C11.603976,386.047821 11.221548,388.010132 10.839121,389.972412 
	C10.787250,390.996216 10.735376,392.020020 10.321205,393.563843 
	C9.570750,396.379181 9.182595,398.674500 8.794437,400.969849 
	C8.771847,401.686462 8.749258,402.403046 8.380768,403.630615 
	C7.650511,406.755859 7.266156,409.370178 6.881803,411.984467 
	C6.845202,413.015686 6.808600,414.046875 6.419876,415.619202 
	C5.680263,419.436554 5.292771,422.712799 4.905280,425.989075 
	C4.869628,427.343079 4.833976,428.697052 4.437920,430.613464 
	C1.379455,436.267670 1.449728,441.573914 2.853181,446.983398 
	C2.851640,447.404602 2.850099,447.825775 2.529559,448.590820 
	C1.807040,448.956451 1.403520,448.978241 1.000000,449.000000 
	C1.000000,299.741852 1.000000,150.483704 1.000000,1.000000 
	C141.020813,1.000000 281.041748,1.000000 421.328674,1.236845 
	C420.677460,2.210675 419.760254,2.947660 418.843048,3.684655 
	C418.126465,3.734896 417.409882,3.785128 416.039459,3.620817 
	C412.864746,4.140916 410.343872,4.875558 407.822998,5.610203 
	C406.795593,5.678017 405.768158,5.745827 404.060913,5.602511 
	C400.766968,4.864393 398.167480,4.380733 396.812988,7.599800 
	C395.789703,7.676756 394.766388,7.753711 393.084656,7.621834 
	C390.553528,8.134329 388.680908,8.855657 386.808258,9.576982 
	C386.097870,9.649859 385.387512,9.722738 384.063354,9.598985 
	C381.966949,9.971997 380.484314,10.541641 379.001678,11.111279 
	C378.315887,11.168095 377.630066,11.224916 376.216003,11.213436 
	C373.991974,11.802489 372.496216,12.459843 371.000488,13.117199 
	C370.310669,13.163070 369.620850,13.208940 368.201111,13.192083 
	C365.980896,13.790863 364.490601,14.452367 363.000336,15.113869 
	C362.602203,15.146339 362.204041,15.178812 361.093201,15.153833 
	C351.793488,17.534885 343.194336,19.932745 334.640442,22.482416 
	C333.885864,22.707333 333.427063,23.924400 332.830872,24.680649 
	C332.423035,24.746304 332.015167,24.811958 331.050690,24.703840 
	C325.928131,26.541487 321.362244,28.552906 316.796326,30.564327 
	C316.390289,30.627760 315.984222,30.691193 315.016724,30.581665 
	C311.970398,31.651249 309.485535,32.893791 307.000671,34.136330 
	C306.618530,34.187145 306.236420,34.237965 305.222839,34.251453 
	C303.727692,34.853436 302.864044,35.492744 302.000366,36.132057 
	C301.617065,36.180454 301.233765,36.228851 300.184753,36.253128 
	C279.956512,46.095898 260.266602,55.722004 240.903107,65.965065 
	C234.445862,69.380875 228.824158,74.376190 222.820511,78.649445 
	C222.820511,78.649452 222.355499,78.778954 221.781555,78.911789 
	C219.825897,80.054024 218.444214,81.063416 217.062531,82.072800 
	C216.266678,82.685127 215.470840,83.297455 214.028564,84.011230 
	C210.292465,86.449371 207.202789,88.786064 204.113129,91.122757 
	C204.113129,91.122757 204.025009,91.111717 203.714294,91.128891 
	C201.574295,92.721756 199.744980,94.297447 197.915680,95.873138 
	C197.428467,96.135628 196.941269,96.398117 195.913544,96.889450 
	C190.223312,101.375961 185.073593,105.633629 179.923859,109.891296 
	C179.164124,110.529251 178.404388,111.167206 177.039597,111.973892 
	C174.930695,113.724289 173.426865,115.305962 171.923019,116.887634 
	C171.923019,116.887634 171.543335,117.031754 170.995697,117.090691 
	C168.607910,119.064651 166.767761,120.979675 164.927612,122.894699 
	C164.493347,123.221718 164.059097,123.548737 163.041748,124.018944 
	C157.275665,129.396912 152.092697,134.631699 146.909714,139.866486 
	C145.689789,141.045090 144.469879,142.223694 142.727905,143.719849 
	C137.195236,149.414627 132.184662,154.791870 127.174072,160.169113 
	C126.848755,160.604919 126.523438,161.040741 125.715561,161.769257 
	C123.538521,164.091553 121.844025,166.121155 120.149536,168.150772 
	C120.149536,168.150772 120.027924,168.539978 119.627174,168.797058 
	C117.863274,170.749298 116.500122,172.444458 115.136971,174.139618 
	C114.547241,174.947708 113.957520,175.755798 112.801239,176.815765 
	C108.184059,182.408173 104.133446,187.748688 100.082832,193.089203 
	C99.773666,193.541580 99.464493,193.993958 98.685013,194.754944 
	C96.857483,197.080856 95.500259,199.098145 94.143028,201.115448 
	C94.143028,201.115448 94.119247,201.034546 93.797417,201.185028 
	C91.344780,204.586411 89.213982,207.837326 87.083176,211.088242 
	C85.351120,213.774124 83.619064,216.460022 81.433914,219.550201 
	C80.426865,220.291489 79.642349,220.492813 79.352539,220.985260 
	C71.207916,234.824875 62.665607,248.456680 55.153107,262.633698 
	C49.220284,273.829651 44.563866,285.701996 39.340580,297.273926 
	C39.292255,297.657440 39.243931,298.040985 38.849777,298.865509 
	C38.113956,300.293182 37.723965,301.279816 37.333969,302.266479 
z"/>
<path fill="#F9C9FF" opacity="1.000000" stroke="none" 
	d="
M1.000000,449.468384 
	C1.403520,448.978241 1.807040,448.956451 2.510126,448.906219 
	C2.450186,455.491058 2.090681,462.104401 1.365588,468.858856 
	C1.000000,462.645599 1.000000,456.291199 1.000000,449.468384 
z"/>
<path fill="#F9C9FF" opacity="1.000000" stroke="none" 
	d="
M419.284363,3.780885 
	C419.760254,2.947660 420.677460,2.210675 421.797363,1.236845 
	C428.354401,1.000000 434.708801,1.000000 441.531616,0.999999 
	C434.575226,1.959040 427.150421,2.918082 419.284363,3.780885 
z"/>
<path fill="#C253FF" opacity="1.000000" stroke="none" 
	d="
M982.699707,460.080811 
	C982.711853,480.409882 983.927307,500.826691 982.452637,521.047302 
	C980.266785,551.021057 975.605103,580.717712 968.183533,609.982300 
	C953.183533,669.129211 927.876831,723.436401 892.660217,773.116455 
	C868.192261,807.633545 839.660034,838.460754 807.148010,865.658752 
	C766.245239,899.875916 721.091003,926.865173 671.542053,946.418152 
	C644.806213,956.968628 617.362244,965.343689 589.004395,970.438354 
	C587.209900,970.760681 585.358337,970.897583 583.533264,970.898438 
	C550.703003,970.913391 517.872742,970.894043 484.588867,970.822571 
	C482.836243,969.080200 481.703186,967.231812 480.213776,965.739014 
	C451.441620,936.902954 422.622620,908.113708 393.837799,879.290344 
	C392.445770,877.896484 391.278534,876.278137 390.335663,874.342285 
	C392.598785,873.577576 394.532776,873.234314 396.466949,872.892273 
	C402.014374,871.911194 403.901855,869.635681 404.044342,863.555298 
	C403.319153,861.169067 402.980865,857.805420 401.578583,857.279663 
	C397.096832,855.599365 395.702393,852.201416 394.769714,848.234131 
	C391.806824,835.630493 388.937683,823.004700 385.952148,810.406494 
	C384.383728,803.788086 382.846710,797.150757 380.926636,790.630676 
	C379.331787,785.215027 374.678833,785.028931 369.992737,784.902588 
	C365.630798,784.785034 364.892944,787.645630 363.445099,790.903870 
	C357.726532,803.772827 351.529480,816.429260 345.128967,829.109558 
	C341.936127,826.629333 339.132019,824.194946 336.310242,821.781189 
	C333.255951,819.168518 330.185089,816.575134 327.085510,813.568726 
	C328.590668,806.161255 327.525696,798.152954 336.349823,794.353394 
	C339.563141,792.969727 338.544586,788.292114 334.832214,787.070129 
	C331.741638,786.052795 328.322235,785.552185 325.065430,785.621338 
	C318.030396,785.770691 310.685425,784.578003 304.362183,789.108704 
	C297.637299,782.619263 290.865967,776.176208 284.261688,769.566162 
	C283.624481,768.928467 284.024017,767.254883 284.259155,765.504761 
	C303.780609,745.752625 323.043762,726.615601 342.130585,707.304321 
	C345.207153,704.191589 348.402283,702.988464 352.719666,703.000549 
	C394.872498,703.119019 437.025818,703.107422 479.178925,703.055298 
	C502.688232,703.026245 519.801025,689.571289 525.453064,666.864868 
	C527.097900,660.256958 526.712219,659.749634 519.841919,659.748901 
	C470.024536,659.743408 420.206726,659.848145 370.390167,659.646179 
	C361.942963,659.612000 353.326752,659.101868 345.089478,657.375854 
	C320.902039,652.307617 300.540771,640.390076 284.568939,621.307617 
	C270.260468,604.212524 261.125092,584.509033 260.297729,562.373413 
	C259.122345,530.927917 259.956543,499.407257 259.932129,467.918701 
	C261.751434,468.915710 263.906158,469.569275 265.335541,470.965454 
	C274.616882,480.031219 283.729156,489.269836 292.928619,498.419861 
	C294.212952,499.697235 295.671936,500.799042 297.478394,502.496490 
	C297.978943,520.669678 297.909088,538.330627 298.168213,555.986755 
	C298.377747,570.263428 303.279907,583.091614 311.959686,594.273987 
	C325.919189,612.258118 344.529083,621.166687 367.306274,621.177063 
	C431.618500,621.206421 495.930786,621.234741 560.242737,621.101257 
	C564.926270,621.091553 568.279907,622.331604 571.634155,625.716370 
	C600.354309,654.697388 629.261475,683.493225 658.126099,712.330994 
	C659.327637,713.531494 660.661133,714.599854 663.159790,716.819336 
	C663.159790,713.264343 663.159790,711.344055 663.159790,709.423767 
	C663.159912,682.099426 663.263367,654.774292 663.062866,627.451416 
	C663.027649,622.664551 664.440674,621.031189 669.274414,621.105042 
	C684.099060,621.331604 698.930481,621.244568 713.757874,621.112122 
	C723.213745,621.027710 732.297974,618.864990 740.691284,614.555420 
	C766.085510,601.516968 779.574829,580.553833 779.668884,552.053101 
	C779.961365,463.416534 779.653442,374.777985 779.904541,286.141144 
	C779.947998,270.801056 777.295959,256.440308 769.964966,242.974670 
	C771.708801,243.905533 773.806396,244.481934 775.145630,245.818268 
	C831.160217,301.714142 887.106750,357.678253 943.062317,413.633240 
	C954.017822,424.588684 964.964905,435.552551 975.947205,446.481079 
	C977.230896,447.758453 978.714905,448.834534 980.427429,450.077759 
	C980.897705,450.790955 981.046631,451.430237 981.144775,452.829651 
	C981.629211,455.753448 982.164490,457.917114 982.699707,460.080811 
M577.063354,844.541260 
	C576.842041,847.370422 577.091370,850.567627 580.457886,850.724060 
	C588.068665,851.077820 595.778564,851.334229 603.319153,850.485107 
	C608.879150,849.859070 611.882996,842.262573 608.808289,838.130859 
	C610.086853,830.291931 609.638794,829.858398 601.805176,830.230774 
	C597.191711,830.450073 592.564758,830.456177 587.944275,830.439026 
	C580.503723,830.411316 579.634033,830.982483 577.738525,838.306335 
	C577.292297,840.030518 577.325378,841.878784 577.063354,844.541260 
M468.671753,844.705444 
	C467.552551,849.266174 470.427429,850.744202 474.018738,850.917480 
	C479.788361,851.195862 485.582306,851.069641 491.363647,850.973755 
	C496.521851,850.888245 500.506836,847.432556 501.247955,842.374878 
	C501.353271,841.656067 500.368195,840.777466 499.967224,839.172485 
	C501.835571,831.766479 501.211304,830.094727 496.376892,830.113281 
	C489.769287,830.138611 483.162476,830.395020 476.555023,830.409790 
	C473.289520,830.417114 471.067749,831.763672 470.358185,834.916687 
	C469.681915,837.921814 469.407715,841.017395 468.671753,844.705444 
M450.106110,863.232239 
	C449.214783,861.321350 448.371033,859.386353 447.418304,857.506592 
	C446.519775,855.733765 444.521637,853.911621 444.698059,852.295776 
	C446.239868,838.173889 448.161377,824.093445 450.649078,809.838501 
	C451.020538,809.531250 451.617676,809.288940 451.727905,808.906372 
	C452.631317,805.770752 454.596375,802.851501 457.793427,803.616638 
	C460.602966,804.289246 463.161621,806.798340 465.355591,808.975464 
	C466.802826,810.411499 467.276306,812.779846 468.420380,814.581726 
	C470.253479,817.468689 473.214752,817.895752 475.747070,816.263367 
	C478.170624,814.701172 480.395813,812.253052 477.862488,807.986450 
	C477.843506,802.173340 478.146240,796.333984 477.675568,790.557739 
	C477.424377,787.475342 476.232361,785.030151 471.612244,785.125732 
	C452.522980,785.520691 433.420197,785.225647 414.323486,785.355103 
	C412.607025,785.366699 410.011627,786.118103 409.332764,787.354248 
	C405.321869,794.657837 401.734924,802.200684 402.560669,811.480652 
	C403.145508,813.147705 403.408356,815.965698 404.383270,816.238464 
	C406.320068,816.780396 409.058441,816.552490 410.713501,815.480957 
	C412.824097,814.114441 414.238647,811.636108 415.868011,809.569824 
	C420.769592,803.353760 423.283661,802.561829 430.679077,805.836243 
	C428.445984,820.435181 426.238403,835.038025 423.960754,849.630005 
	C423.433044,853.010803 422.334747,855.936218 418.528381,857.237610 
	C414.970245,858.454224 413.899597,861.269165 415.024200,865.695312 
	C414.557892,870.647522 417.376862,872.793762 421.786407,872.928589 
	C428.674469,873.139404 435.584045,873.205139 442.465607,872.902649 
	C448.539124,872.635742 451.008698,869.448181 450.106110,863.232239 
M547.649597,856.521912 
	C544.999207,858.780029 540.415833,859.977539 542.669861,865.715332 
	C541.422729,869.687683 543.559448,872.397400 546.957153,872.609863 
	C554.988708,873.111938 563.121094,873.284180 571.121094,872.567566 
	C576.627869,872.074280 578.274353,868.721313 577.136841,863.287964 
	C578.335632,860.174744 577.145325,857.840515 574.227661,856.933594 
	C570.253662,855.698425 568.884399,852.724731 568.034851,849.228821 
	C565.641235,839.379639 563.310120,829.515198 560.955383,819.656555 
	C558.678772,810.124695 556.528320,800.560364 554.081238,791.072449 
	C552.598511,785.323425 547.853394,785.009888 542.947510,784.901245 
	C538.555420,784.803894 537.363342,787.462280 536.495789,790.998718 
	C535.826538,793.727173 534.937561,796.474304 533.671082,798.972107 
	C525.175476,815.727783 516.774597,832.539795 507.792206,849.033569 
	C505.893005,852.520935 501.910065,855.034607 498.526062,857.501526 
	C495.779694,859.503723 493.200226,861.105957 494.889160,865.719116 
	C493.273987,869.605896 495.844666,871.746155 498.719574,872.510742 
	C505.009796,874.183472 511.487671,874.218567 517.761902,872.067749 
	C521.565125,870.764038 523.614258,868.315063 522.199463,863.381653 
	C524.040527,859.787354 520.932556,858.712219 519.084595,856.352478 
	C524.919434,847.208191 540.736389,846.966919 547.649597,856.521912 
M752.716003,810.817078 
	C753.065002,810.484009 753.638611,810.202087 753.727844,809.809998 
	C754.504333,806.395447 756.234863,804.220093 760.044067,803.965332 
	C764.079773,803.695435 766.050598,806.077942 767.613464,809.212952 
	C768.426086,810.842957 769.211060,812.489441 770.092346,814.082092 
	C771.880432,817.313843 774.803467,817.878967 777.720581,816.335754 
	C780.535889,814.846375 782.251343,812.372559 780.021423,808.157532 
	C779.927673,801.877747 780.066406,795.581543 779.624512,789.326355 
	C779.450378,786.860474 778.030396,785.002502 774.598633,785.073242 
	C752.281128,785.533508 729.957520,785.681946 707.637512,786.037109 
	C699.849060,786.161072 692.045776,786.359863 684.295166,787.044189 
	C682.651611,787.189270 680.290527,789.401733 679.940308,791.024231 
	C679.615540,792.529114 681.569153,794.502991 682.461121,796.299377 
	C683.431091,798.252747 685.147888,800.251404 685.119324,802.209534 
	C685.017456,809.189026 684.610657,816.196533 683.755920,823.123901 
	C682.801331,830.860413 681.232727,838.521179 679.931396,846.214905 
	C679.179016,834.147400 672.722717,827.250549 660.660889,824.228210 
	C663.739929,822.890686 665.756470,822.126099 667.673096,821.162842 
	C676.028931,816.963867 679.956055,809.991516 678.929810,801.320557 
	C678.018250,793.619080 672.893372,788.713989 663.482483,786.612976 
	C662.028015,786.288330 660.525330,786.009949 659.043701,786.003540 
	C646.881104,785.951050 634.717346,785.893677 622.556152,786.030762 
	C620.288757,786.056335 617.874512,786.594177 615.802307,787.513672 
	C611.770813,789.302490 611.212097,793.165710 614.820312,795.709412 
	C617.720276,797.753906 618.669678,800.153564 618.247375,803.340210 
	C616.129578,819.321838 614.102783,835.318726 611.630676,851.246094 
	C611.298157,853.388672 608.989136,855.801208 606.953125,856.971191 
	C603.669434,858.858215 602.379700,861.114319 603.069763,865.551392 
	C603.295532,871.028564 605.100281,872.891602 610.696777,872.969727 
	C618.692261,873.081360 626.783386,872.267517 634.663696,873.234375 
	C644.959167,874.497375 654.777466,873.650940 664.645264,870.774414 
	C666.778137,870.152649 669.566101,870.639038 671.730774,871.461487 
	C681.335754,875.110535 690.989563,874.205933 700.537964,871.808289 
	C703.328613,871.107605 706.766602,869.057739 704.054810,864.200378 
	C703.616760,862.035217 703.364319,859.810181 702.690674,857.720947 
	C701.950806,855.425781 699.862427,853.181030 700.028198,851.043701 
	C700.806519,841.015686 702.158203,831.032104 703.957703,820.881653 
	C709.914490,817.607422 715.496033,814.000122 719.456116,808.156738 
	C722.767883,803.270020 727.426697,801.997437 732.912109,805.854187 
	C730.614929,820.718018 728.495850,835.613770 725.843323,850.413879 
	C725.406616,852.850037 723.032227,855.477356 720.835144,856.929810 
	C717.758911,858.963318 716.354858,861.144775 717.067139,865.556213 
	C716.459656,869.879395 718.671692,872.586365 722.653381,872.786194 
	C730.514404,873.180786 738.422852,873.188110 746.284546,872.802490 
	C751.011963,872.570618 753.163940,868.903137 752.027893,864.062134 
	C751.678284,862.121643 751.901001,858.923401 750.879883,858.458740 
	C746.486084,856.459534 746.492493,853.080078 746.931030,849.313354 
	C747.603027,843.540710 748.324341,837.773804 749.636292,831.869507 
	C749.502563,830.906189 749.368835,829.942932 749.206543,828.300720 
	C749.471924,827.201416 749.737305,826.102051 750.545410,824.902039 
	C750.413086,824.263367 750.280701,823.624695 750.097961,822.259399 
	C750.406860,820.841187 750.715759,819.423035 751.562256,817.901672 
	C751.432983,817.262390 751.303711,816.623169 751.136963,815.260254 
	C751.439209,813.842224 751.741394,812.424133 752.716003,810.817078 
z"/>
<path fill="#FFFEFF" opacity="1.000000" stroke="none" 
	d="
M769.656372,242.842865 
	C777.295959,256.440308 779.947998,270.801056 779.904541,286.141144 
	C779.653442,374.777985 779.961365,463.416534 779.668884,552.053101 
	C779.574829,580.553833 766.085510,601.516968 740.691284,614.555420 
	C732.297974,618.864990 723.213745,621.027710 713.757874,621.112122 
	C698.930481,621.244568 684.099060,621.331604 669.274414,621.105042 
	C664.440674,621.031189 663.027649,622.664551 663.062866,627.451416 
	C663.263367,654.774292 663.159912,682.099426 663.159790,709.423767 
	C663.159790,711.344055 663.159790,713.264343 663.159790,716.819336 
	C660.661133,714.599854 659.327637,713.531494 658.126099,712.330994 
	C629.261475,683.493225 600.354309,654.697388 571.634155,625.716370 
	C568.279907,622.331604 564.926270,621.091553 560.242737,621.101257 
	C495.930786,621.234741 431.618500,621.206421 367.306274,621.177063 
	C344.529083,621.166687 325.919189,612.258118 311.959686,594.273987 
	C303.279907,583.091614 298.377747,570.263428 298.168213,555.986755 
	C297.909088,538.330627 297.978943,520.669678 297.804016,502.559937 
	C297.822083,499.788055 298.047638,497.467133 298.048309,495.146118 
	C298.068756,423.331970 297.936981,351.517426 298.133057,279.703827 
	C298.211731,250.882492 311.802124,229.976425 337.354980,216.965271 
	C345.896820,212.615875 355.149750,210.839478 364.866760,210.847290 
	C480.835693,210.940491 596.804871,210.828339 712.773743,210.975174 
	C735.829529,211.004364 754.034668,221.015823 767.305420,239.910400 
	C767.969421,240.855759 768.666321,241.778015 769.656372,242.842865 
M570.500000,294.170715 
	C546.512634,294.170654 522.525269,294.167999 498.537872,294.171295 
	C477.548981,294.174225 456.559906,294.138397 435.571259,294.214081 
	C427.781189,294.242157 421.830902,297.739288 417.974304,304.532623 
	C414.125244,311.312805 414.864655,318.028717 419.044037,324.311523 
	C423.538727,331.068268 430.377136,332.952484 438.123749,332.947235 
	C505.254974,332.901764 572.386230,332.921356 639.517456,332.916504 
	C640.849426,332.916412 642.186829,332.921082 643.512512,332.812347 
	C656.370605,331.757629 664.288452,320.570801 661.027527,308.094238 
	C658.800720,299.574280 651.260559,294.232361 640.963257,294.199402 
	C617.809082,294.125305 594.654419,294.173035 570.500000,294.170715 
M432.019501,537.005493 
	C502.491333,537.034729 572.963196,537.076355 643.434937,537.036682 
	C645.695312,537.035400 648.121033,536.582520 650.185974,535.686340 
	C658.406677,532.118591 663.126831,523.207214 661.425964,514.999634 
	C659.346313,504.963806 652.111084,498.939423 641.543152,498.931122 
	C573.069702,498.877502 504.596222,498.877350 436.122833,498.928528 
	C425.540588,498.936432 417.424072,505.775421 416.036285,515.421692 
	C414.578430,525.554993 420.293121,533.689697 432.019501,537.005493 
M659.229980,406.479584 
	C655.197144,400.102661 649.698669,396.792633 641.862976,396.805481 
	C573.221741,396.918152 504.580322,396.857758 435.938965,396.918671 
	C433.330536,396.920990 430.535034,397.161102 428.148224,398.104095 
	C419.420502,401.552521 414.527649,410.267578 416.135651,418.819458 
	C417.936584,428.397064 425.552917,435.044067 435.433014,435.054108 
	C504.240906,435.124084 573.049011,435.153809 641.856750,435.047729 
	C657.082458,435.024231 665.682068,421.215179 659.229980,406.479584 
z"/>
<path fill="#FEFDFF" opacity="1.000000" stroke="none" 
	d="
M259.726166,467.627106 
	C259.956543,499.407257 259.122345,530.927917 260.297729,562.373413 
	C261.125092,584.509033 270.260468,604.212524 284.568939,621.307617 
	C300.540771,640.390076 320.902039,652.307617 345.089478,657.375854 
	C353.326752,659.101868 361.942963,659.612000 370.390167,659.646179 
	C420.206726,659.848145 470.024536,659.743408 519.841919,659.748901 
	C526.712219,659.749634 527.097900,660.256958 525.453064,666.864868 
	C519.801025,689.571289 502.688232,703.026245 479.178925,703.055298 
	C437.025818,703.107422 394.872498,703.119019 352.719666,703.000549 
	C348.402283,702.988464 345.207153,704.191589 342.130585,707.304321 
	C323.043762,726.615601 303.780609,745.752625 284.313599,765.191406 
	C283.400177,762.902893 282.568878,760.399292 282.157227,757.828430 
	C281.848541,755.901001 282.079773,753.887146 282.031128,750.989746 
	C282.011261,736.452087 281.909515,722.834656 282.120850,709.222046 
	C282.188629,704.855591 280.602661,703.413574 276.299103,703.493958 
	C266.009247,703.686340 255.712051,703.484863 245.257355,703.190063 
	C244.374069,702.774170 243.651276,702.610596 242.510803,702.341614 
	C238.074509,701.463440 234.055878,700.690613 230.037247,699.917847 
	C230.037247,699.917786 230.018967,699.986572 230.172379,699.680481 
	C230.273666,699.169373 230.221542,698.964417 230.169418,698.759460 
	C219.776138,692.842834 211.185852,685.177307 207.396240,673.457520 
	C205.778381,668.454102 204.312973,663.118408 204.288712,657.926575 
	C204.058334,608.597290 203.916733,559.264893 204.259766,509.936920 
	C204.416809,487.352478 223.142303,466.381348 246.671860,465.984741 
	C250.945862,465.912689 255.237000,466.859192 259.726166,467.627106 
z"/>
<path fill="#035AE0" opacity="1.000000" stroke="none" 
	d="
M304.260376,789.429199 
	C310.685425,784.578003 318.030396,785.770691 325.065430,785.621338 
	C328.322235,785.552185 331.741638,786.052795 334.832214,787.070129 
	C338.544586,788.292114 339.563141,792.969727 336.349823,794.353394 
	C327.525696,798.152954 328.590668,806.161255 326.991882,813.975342 
	C326.451172,817.909790 325.884308,821.022583 325.500977,824.157898 
	C324.410736,833.074524 323.236969,841.987061 322.485657,850.933899 
	C322.337372,852.699646 323.478271,855.517639 324.846832,856.199097 
	C326.194794,856.870239 328.768555,855.773071 330.463287,854.835205 
	C331.822540,854.083069 332.919067,852.544739 333.704712,851.119690 
	C337.716125,843.843384 341.588715,836.490540 345.509888,829.164490 
	C351.529480,816.429260 357.726532,803.772827 363.445099,790.903870 
	C364.892944,787.645630 365.630798,784.785034 369.992737,784.902588 
	C374.678833,785.028931 379.331787,785.215027 380.926636,790.630676 
	C382.846710,797.150757 384.383728,803.788086 385.952148,810.406494 
	C388.937683,823.004700 391.806824,835.630493 394.769714,848.234131 
	C395.702393,852.201416 397.096832,855.599365 401.578583,857.279663 
	C402.980865,857.805420 403.319153,861.169067 403.718445,863.717957 
	C401.553101,865.055237 399.884094,866.408936 398.061005,866.664978 
	C393.054077,867.368103 387.982452,867.610413 382.936432,868.035095 
	C380.068176,867.730103 377.022827,867.937622 374.366547,867.019409 
	C367.708252,864.717834 367.423004,862.260742 373.391785,857.344727 
	C377.515350,853.699402 374.773834,850.191345 373.710052,847.152832 
	C373.191589,845.671753 370.265137,844.533447 368.266388,844.193176 
	C365.561188,843.732788 362.700073,844.188416 359.468353,844.180847 
	C356.738708,844.113708 354.433044,843.959473 352.157227,844.153931 
	C347.871979,844.520020 345.944031,847.729492 345.020294,851.277710 
	C344.560089,853.045532 345.569550,855.196045 345.914185,857.173401 
	C347.981415,858.724792 351.047302,859.749756 348.780914,863.882019 
	C344.463165,865.415894 340.585876,867.103943 336.624115,867.333374 
	C327.580292,867.857117 318.478027,868.038025 309.433319,867.622070 
	C304.305878,867.386292 299.245270,865.696350 294.154572,864.661316 
	C293.281982,861.087891 294.648560,858.874023 297.855499,857.028748 
	C299.598694,856.025757 301.230621,853.866516 301.760834,851.915710 
	C302.916809,847.662476 303.335693,843.208984 304.177948,838.076416 
	C305.324738,831.031067 304.688324,830.205994 298.539429,830.014648 
	C296.209137,829.942139 293.875824,829.951233 291.543884,829.949829 
	C278.778015,829.942017 278.185669,830.537354 277.992462,843.512695 
	C277.990021,843.677124 278.037323,843.842285 278.061401,844.007141 
	C277.799805,846.646118 277.150330,849.323486 277.406006,851.911377 
	C277.592377,853.797607 279.025635,855.543457 279.805817,857.392944 
	C280.633301,859.354675 281.345856,861.364868 281.740570,863.864746 
	C279.576019,865.183228 277.819763,866.564819 275.975769,866.694031 
	C269.677704,867.135254 263.349518,867.184143 257.031281,867.288513 
	C252.529617,867.362915 248.416397,866.572083 247.003693,861.491516 
	C246.134277,861.591553 245.592743,861.527344 245.175323,861.725159 
	C243.828491,862.363342 242.507324,863.062866 241.211761,863.801025 
	C232.776901,868.606995 223.679367,870.034912 214.200607,868.630981 
	C199.729507,866.487549 191.350052,857.454102 187.163391,843.937622 
	C185.046753,829.604675 186.850708,816.136230 195.515045,804.012451 
	C207.699265,786.963440 232.108963,780.482666 247.861176,787.886536 
	C250.684891,789.213806 254.121002,789.238098 257.273560,789.863892 
	C259.272980,788.819763 261.609650,786.648743 264.077209,786.488098 
	C271.682922,785.992920 279.352112,786.015076 286.964722,786.427063 
	C288.733948,786.522827 291.425140,788.738525 291.777283,790.387756 
	C292.118622,791.986084 290.428619,794.649597 288.871552,795.899719 
	C284.719543,799.233459 280.327240,811.017456 282.258850,815.975830 
	C282.714172,817.144409 284.698822,818.376953 286.026794,818.431213 
	C291.661926,818.660950 297.347229,818.779907 302.940765,818.213745 
	C304.578430,818.047974 306.853302,815.712097 307.301910,813.974670 
	C308.329987,809.993164 308.688782,805.771301 308.744171,801.639221 
	C308.766602,799.966614 307.711823,797.739746 306.403717,796.704773 
	C303.902191,794.725403 303.219391,792.616394 304.260376,789.429199 
M255.917801,853.816711 
	C258.191956,840.553894 260.466095,827.291077 262.948517,813.166443 
	C263.775238,798.927124 263.775238,798.927124 260.262634,797.057861 
	C260.187531,797.565857 259.989899,798.069031 260.064758,798.527710 
	C260.685059,802.328430 261.902008,806.639587 257.443024,808.678223 
	C252.612350,810.886597 249.760574,807.314941 247.252670,803.773743 
	C246.773361,803.096863 246.195831,802.485657 245.632217,801.873047 
	C241.198853,797.054016 236.098389,794.327698 229.213562,795.756836 
	C218.572189,797.965576 210.374878,808.499023 208.922226,822.832336 
	C209.182877,829.249146 208.406647,835.921143 209.910156,842.032166 
	C213.552353,856.835999 226.580612,861.374939 239.209244,852.897827 
	C241.129135,851.609009 242.840103,850.004822 244.622482,848.516235 
	C247.146439,846.408386 248.895050,841.855896 252.952011,843.830811 
	C257.195129,845.896362 254.727448,850.314148 254.315140,854.142273 
	C254.309158,854.586487 254.303177,855.030640 254.297211,855.474854 
	C254.711853,855.139038 255.126511,854.803162 255.917801,853.816711 
M358.809784,834.060364 
	C362.675568,834.060364 366.541351,834.060364 371.139404,834.060364 
	C368.982117,825.924133 369.746613,818.187317 364.568970,810.219360 
	C361.055847,818.113892 358.058533,824.668213 355.341278,831.336670 
	C355.146759,831.813965 357.001892,833.126587 358.809784,834.060364 
z"/>
<path fill="#C354FF" opacity="1.000000" stroke="none" 
	d="
M230.058929,700.268188 
	C234.055878,700.690613 238.074509,701.463440 242.631256,702.623779 
	C243.918869,703.155029 244.668335,703.298767 245.417816,703.442505 
	C255.712051,703.484863 266.009247,703.686340 276.299103,703.493958 
	C280.602661,703.413574 282.188629,704.855591 282.120850,709.222046 
	C281.909515,722.834656 282.011261,736.452087 281.931946,750.534668 
	C280.416870,750.348389 278.618866,750.041138 277.557556,748.989990 
	C262.181702,733.762573 246.898407,718.441589 231.625046,703.110962 
	C230.953186,702.436584 230.588440,701.456299 230.058929,700.268188 
z"/>
<path fill="#E079F1" opacity="1.000000" stroke="none" 
	d="
M186.884842,844.212280 
	C191.350052,857.454102 199.729507,866.487549 214.200607,868.630981 
	C223.679367,870.034912 232.776901,868.606995 241.211761,863.801025 
	C242.507324,863.062866 243.828491,862.363342 245.175323,861.725159 
	C245.592743,861.527344 246.134277,861.591553 247.003693,861.491516 
	C248.416397,866.572083 252.529617,867.362915 257.031281,867.288513 
	C263.349518,867.184143 269.677704,867.135254 275.975769,866.694031 
	C277.819763,866.564819 279.576019,865.183228 281.688507,864.192261 
	C283.310974,868.369568 281.851410,871.851685 277.402130,872.542542 
	C267.133148,874.137085 256.734558,876.315613 246.906952,870.162903 
	C245.533264,869.302917 242.720108,869.817261 240.988541,870.606506 
	C230.941528,875.185303 220.530045,876.556396 209.868958,873.903809 
	C196.791473,870.649963 189.468658,861.535278 186.245163,848.839111 
	C185.906418,847.505005 186.464355,845.943115 186.884842,844.212280 
z"/>
<path fill="#DF78F0" opacity="1.000000" stroke="none" 
	d="
M294.118042,865.087280 
	C299.245270,865.696350 304.305878,867.386292 309.433319,867.622070 
	C318.478027,868.038025 327.580292,867.857117 336.624115,867.333374 
	C340.585876,867.103943 344.463165,865.415894 348.699432,864.215088 
	C350.905640,868.011230 349.011993,870.834351 345.513336,871.817810 
	C341.312714,872.998535 336.815063,873.329407 332.421173,873.564697 
	C326.587830,873.877197 320.725983,873.908325 314.884766,873.749817 
	C309.463470,873.602844 304.005554,873.365601 298.654877,872.561523 
	C295.064362,872.022034 293.499390,869.236877 294.118042,865.087280 
z"/>
<path fill="#DE78F0" opacity="1.000000" stroke="none" 
	d="
M278.398743,843.907654 
	C278.037323,843.842285 277.990021,843.677124 277.992462,843.512695 
	C278.185669,830.537354 278.778015,829.942017 291.543884,829.949829 
	C293.875824,829.951233 296.209137,829.942139 298.539429,830.014648 
	C304.688324,830.205994 305.324738,831.031067 304.141907,837.659668 
	C300.318665,837.333435 296.673767,836.508301 292.984070,836.026611 
	C286.416718,835.169434 280.931183,836.542358 278.398743,843.907654 
z"/>
<path fill="#F9C9FF" opacity="1.000000" stroke="none" 
	d="
M39.650890,297.137024 
	C44.563866,285.701996 49.220284,273.829651 55.153107,262.633698 
	C62.665607,248.456680 71.207916,234.824875 79.352539,220.985260 
	C79.642349,220.492813 80.426865,220.291489 81.301468,219.874298 
	C81.359161,220.708710 81.307144,221.764679 80.802628,222.517319 
	C65.582680,245.222687 52.790115,269.234558 41.962692,294.315796 
	C41.532303,295.312775 40.638878,296.109863 39.650890,297.137024 
z"/>
<path fill="#F9C9FF" opacity="1.000000" stroke="none" 
	d="
M223.175934,78.697762 
	C228.824158,74.376190 234.445862,69.380875 240.903107,65.965065 
	C260.266602,55.722004 279.956512,46.095898 299.896606,36.284214 
	C296.946472,38.261734 293.750244,40.472569 290.269592,42.059544 
	C267.688416,52.355179 245.966003,64.181160 225.325745,77.977455 
	C224.793961,78.332909 224.132401,78.494225 223.175934,78.697762 
z"/>
<path fill="#B550F3" opacity="1.000000" stroke="none" 
	d="
M359.905823,844.251099 
	C362.700073,844.188416 365.561188,843.732788 368.266388,844.193176 
	C370.265137,844.533447 373.191589,845.671753 373.710052,847.152832 
	C374.773834,850.191345 377.515350,853.699402 373.608826,857.073242 
	C370.732666,855.180176 368.191650,853.226624 365.293304,850.772949 
	C363.259247,848.265564 361.582550,846.258301 359.905823,844.251099 
z"/>
<path fill="#DC75F2" opacity="1.000000" stroke="none" 
	d="
M359.468384,844.180847 
	C361.582550,846.258301 363.259247,848.265564 365.007874,850.600830 
	C354.840179,848.611084 350.006592,850.014282 345.976868,856.814880 
	C345.569550,855.196045 344.560089,853.045532 345.020294,851.277710 
	C345.944031,847.729492 347.871979,844.520020 352.157227,844.153931 
	C354.433044,843.959473 356.738708,844.113708 359.468384,844.180847 
z"/>
<path fill="#B44FF0" opacity="1.000000" stroke="none" 
	d="
M383.006653,868.370361 
	C387.982452,867.610413 393.054077,867.368103 398.061005,866.664978 
	C399.884094,866.408936 401.553101,865.055237 403.618286,864.039612 
	C403.901855,869.635681 402.014374,871.911194 396.466949,872.892273 
	C394.532776,873.234314 392.598785,873.577576 390.259003,874.007996 
	C387.594482,872.298950 385.335693,870.502319 383.006653,868.370361 
z"/>
<path fill="#F9C9FF" opacity="1.000000" stroke="none" 
	d="
M333.216736,24.727072 
	C333.427063,23.924400 333.885864,22.707333 334.640442,22.482416 
	C343.194336,19.932745 351.793488,17.534885 360.794189,15.172834 
	C359.238495,16.195688 357.345367,17.376949 355.285889,18.046024 
	C348.089142,20.384041 340.834930,22.545162 333.216736,24.727072 
z"/>
<path fill="#F9C9FF" opacity="1.000000" stroke="none" 
	d="
M18.554829,358.044800 
	C21.175457,348.824890 24.105986,339.445496 27.359516,329.949036 
	C24.743256,339.183075 21.803993,348.534210 18.554829,358.044800 
z"/>
<path fill="#F9C9FF" opacity="1.000000" stroke="none" 
	d="
M147.256195,139.854034 
	C152.092697,134.631699 157.275665,129.396912 162.814529,124.168579 
	C157.981155,129.397202 152.791916,134.619385 147.256195,139.854034 
z"/>
<path fill="#F9C9FF" opacity="1.000000" stroke="none" 
	d="
M127.494751,160.074188 
	C132.184662,154.791870 137.195236,149.414627 142.534241,143.972534 
	C137.846909,149.264893 132.831177,154.622086 127.494751,160.074188 
z"/>
<path fill="#F9C9FF" opacity="1.000000" stroke="none" 
	d="
M180.276428,109.875565 
	C185.073593,105.633629 190.223312,101.375961 195.727844,97.097809 
	C190.931427,101.338165 185.780228,105.599007 180.276428,109.875565 
z"/>
<path fill="#F9C9FF" opacity="1.000000" stroke="none" 
	d="
M100.412209,193.011871 
	C104.133446,187.748688 108.184059,182.408173 112.563110,176.995956 
	C108.841568,182.261017 104.791580,187.597778 100.412209,193.011871 
z"/>
<path fill="#F9C9FF" opacity="1.000000" stroke="none" 
	d="
M3.124190,446.687958 
	C1.449728,441.573914 1.379455,436.267670 4.396946,431.017578 
	C4.275985,436.037018 3.835592,441.214783 3.124190,446.687958 
z"/>
<path fill="#F9C9FF" opacity="1.000000" stroke="none" 
	d="
M28.235783,327.808105 
	C29.601835,323.344116 31.280535,318.699097 33.260769,313.924866 
	C31.891012,318.406128 30.219723,323.016571 28.235783,327.808105 
z"/>
<path fill="#F9C9FF" opacity="1.000000" stroke="none" 
	d="
M317.171936,30.635044 
	C321.362244,28.552906 325.928131,26.541487 330.742126,24.732346 
	C326.509338,26.858334 322.028442,28.782045 317.171936,30.635044 
z"/>
<path fill="#F9C9FF" opacity="1.000000" stroke="none" 
	d="
M5.175626,425.726685 
	C5.292771,422.712799 5.680263,419.436554 6.375774,416.003784 
	C6.271187,419.052948 5.858579,422.258606 5.175626,425.726685 
z"/>
<path fill="#F9C9FF" opacity="1.000000" stroke="none" 
	d="
M87.413544,211.005661 
	C89.213982,207.837326 91.344780,204.586411 93.799271,201.223663 
	C91.996605,204.382233 89.870255,207.652664 87.413544,211.005661 
z"/>
<path fill="#F9C9FF" opacity="1.000000" stroke="none" 
	d="
M204.469696,91.090057 
	C207.202789,88.786064 210.292465,86.449371 213.739105,84.101776 
	C211.006134,86.413025 207.916199,88.735191 204.469696,91.090057 
z"/>
<path fill="#F9C9FF" opacity="1.000000" stroke="none" 
	d="
M7.173256,411.746521 
	C7.266156,409.370178 7.650511,406.755859 8.334857,403.986572 
	C8.244802,406.390564 7.854756,408.949585 7.173256,411.746521 
z"/>
<path fill="#F9C9FF" opacity="1.000000" stroke="none" 
	d="
M408.229797,5.716404 
	C410.343872,4.875558 412.864746,4.140916 415.679993,3.615201 
	C413.528412,4.490289 411.082520,5.156449 408.229797,5.716404 
z"/>
<path fill="#F9C9FF" opacity="1.000000" stroke="none" 
	d="
M34.114353,311.806519 
	C34.691063,309.417023 35.589237,306.868195 36.800766,304.159363 
	C36.221348,306.548645 35.328583,309.097900 34.114353,311.806519 
z"/>
<path fill="#F9C9FF" opacity="1.000000" stroke="none" 
	d="
M397.211853,7.706472 
	C398.167480,4.380733 400.766968,4.864393 403.674011,5.594714 
	C401.848267,6.469743 399.729492,7.141444 397.211853,7.706472 
z"/>
<path fill="#F9C9FF" opacity="1.000000" stroke="none" 
	d="
M9.095236,400.743927 
	C9.182595,398.674500 9.570750,396.379181 10.263783,393.944031 
	C10.177782,396.042175 9.786906,398.280090 9.095236,400.743927 
z"/>
<path fill="#F9C9FF" opacity="1.000000" stroke="none" 
	d="
M307.246948,34.315506 
	C309.485535,32.893791 311.970398,31.651249 314.708984,30.600504 
	C312.472900,32.026428 309.983063,33.260555 307.246948,34.315506 
z"/>
<path fill="#F9C9FF" opacity="1.000000" stroke="none" 
	d="
M165.272919,122.878532 
	C166.767761,120.979675 168.607910,119.064651 170.802246,117.152435 
	C169.310349,119.057625 167.464279,120.959999 165.272919,122.878532 
z"/>
<path fill="#F9C9FF" opacity="1.000000" stroke="none" 
	d="
M11.172305,389.792419 
	C11.221548,388.010132 11.603976,386.047821 12.283625,383.947327 
	C12.222394,385.743530 11.863942,387.678009 11.172305,389.792419 
z"/>
<path fill="#F9C9FF" opacity="1.000000" stroke="none" 
	d="
M120.475937,168.070663 
	C121.844025,166.121155 123.538521,164.091553 125.562027,161.993835 
	C124.194801,163.947342 122.498573,165.968948 120.475937,168.070663 
z"/>
<path fill="#F9C9FF" opacity="1.000000" stroke="none" 
	d="
M387.188660,9.687845 
	C388.680908,8.855657 390.553528,8.134329 392.699127,7.618878 
	C391.171082,8.482738 389.370087,9.140721 387.188660,9.687845 
z"/>
<path fill="#F9C9FF" opacity="1.000000" stroke="none" 
	d="
M198.266632,95.863571 
	C199.744980,94.297447 201.574295,92.721756 203.759430,91.144119 
	C202.282700,92.712784 200.450150,94.283394 198.266632,95.863571 
z"/>
<path fill="#F9C9FF" opacity="1.000000" stroke="none" 
	d="
M94.467590,201.034821 
	C95.500259,199.098145 96.857483,197.080856 98.541687,194.988571 
	C97.509834,196.927139 96.150986,198.940674 94.467590,201.034821 
z"/>
<path fill="#F9C9FF" opacity="1.000000" stroke="none" 
	d="
M172.266632,116.873894 
	C173.426865,115.305962 174.930695,113.724289 176.786118,112.138458 
	C175.628540,113.709587 174.119400,115.284874 172.266632,116.873894 
z"/>
<path fill="#F9C9FF" opacity="1.000000" stroke="none" 
	d="
M379.258423,11.317759 
	C380.484314,10.541641 381.966949,9.971997 383.705872,9.600710 
	C382.479828,10.374122 380.997498,10.949178 379.258423,11.317759 
z"/>
<path fill="#F9C9FF" opacity="1.000000" stroke="none" 
	d="
M115.461792,174.057129 
	C116.500122,172.444458 117.863274,170.749298 119.555984,168.988098 
	C118.519226,170.606262 117.152924,172.290436 115.461792,174.057129 
z"/>
<path fill="#F9C9FF" opacity="1.000000" stroke="none" 
	d="
M13.103155,380.815247 
	C13.030361,379.414520 13.269922,377.865692 13.814579,376.158783 
	C13.884953,377.556183 13.650231,379.111664 13.103155,380.815247 
z"/>
<path fill="#F9C9FF" opacity="1.000000" stroke="none" 
	d="
M16.583605,365.091034 
	C16.687290,363.613586 17.075514,361.989899 17.788090,360.182617 
	C17.697678,361.647614 17.282911,363.296204 16.583605,365.091034 
z"/>
<path fill="#F9C9FF" opacity="1.000000" stroke="none" 
	d="
M14.601082,373.095276 
	C14.691730,371.619995 15.062401,369.992218 15.756943,368.181824 
	C15.680911,369.647064 15.281008,371.294922 14.601082,373.095276 
z"/>
<path fill="#F9C9FF" opacity="1.000000" stroke="none" 
	d="
M371.246002,13.317016 
	C372.496216,12.459843 373.991974,11.802489 375.873138,11.243192 
	C374.669556,12.066444 373.080536,12.791639 371.246002,13.317016 
z"/>
<path fill="#F9C9FF" opacity="1.000000" stroke="none" 
	d="
M363.246643,15.313155 
	C364.490601,14.452367 365.980896,13.790863 367.856323,13.217905 
	C366.658661,14.041780 365.075775,14.777109 363.246643,15.313155 
z"/>
<path fill="#F9C9FF" opacity="1.000000" stroke="none" 
	d="
M217.410583,82.018425 
	C218.444214,81.063416 219.825897,80.054024 221.551208,78.983864 
	C220.516098,79.936745 219.137360,80.950394 217.410583,82.018425 
z"/>
<path fill="#F9C9FF" opacity="1.000000" stroke="none" 
	d="
M37.601849,302.151794 
	C37.723965,301.279816 38.113956,300.293182 38.811722,299.152893 
	C38.702904,300.011902 38.286316,301.024506 37.601849,302.151794 
z"/>
<path fill="#F9C9FF" opacity="1.000000" stroke="none" 
	d="
M302.217224,36.306774 
	C302.864044,35.492744 303.727692,34.853436 304.935669,34.285477 
	C304.331299,35.065048 303.382690,35.773270 302.217224,36.306774 
z"/>
<path fill="#C354FF" opacity="1.000000" stroke="none" 
	d="
M229.938995,698.854858 
	C230.221542,698.964417 230.273666,699.169373 230.205780,699.668213 
	C229.696136,699.782654 229.306519,699.603333 228.916901,699.423950 
	C229.180786,699.266113 229.444672,699.108215 229.938995,698.854858 
z"/>
<path fill="#F280FF" opacity="1.000000" stroke="none" 
	d="
M982.790649,459.665405 
	C982.164490,457.917114 981.629211,455.753448 981.181030,453.157471 
	C981.805908,454.900116 982.343689,457.075073 982.790649,459.665405 
z"/>
<path fill="#035AE0" opacity="1.000000" stroke="none" 
	d="
M751.024597,818.004822 
	C750.715759,819.423035 750.406860,820.841187 750.034790,822.952332 
	C749.981995,824.097778 749.992371,824.550232 750.002686,825.002747 
	C749.737305,826.102051 749.471924,827.201416 749.119446,829.009399 
	C749.029846,830.480164 749.027283,831.242310 749.024719,832.004456 
	C748.324341,837.773804 747.603027,843.540710 746.931030,849.313354 
	C746.492493,853.080078 746.486084,856.459534 750.879883,858.458740 
	C751.901001,858.923401 751.678284,862.121643 751.582520,864.549377 
	C742.360168,868.962891 733.123962,867.136536 724.060181,867.010376 
	C721.741821,866.978149 719.443420,865.513062 717.135803,864.706299 
	C716.354858,861.144775 717.758911,858.963318 720.835144,856.929810 
	C723.032227,855.477356 725.406616,852.850037 725.843323,850.413879 
	C728.495850,835.613770 730.614929,820.718018 732.964294,805.001709 
	C733.361328,797.170532 729.875305,794.462646 723.752625,797.878479 
	C720.356812,799.773071 717.760376,803.416931 715.349304,806.676086 
	C712.626587,810.356628 710.028198,813.506714 704.577759,811.217407 
	C704.108337,814.837463 703.706726,817.935059 703.305054,821.032654 
	C702.158203,831.032104 700.806519,841.015686 700.028198,851.043701 
	C699.862427,853.181030 701.950806,855.425781 702.690674,857.720947 
	C703.364319,859.810181 703.616760,862.035217 703.538940,864.645630 
	C692.262085,869.496033 673.267334,868.143250 669.431458,863.285400 
	C664.003967,864.631592 658.926086,866.831543 653.785950,866.988098 
	C638.883423,867.442200 623.954590,867.161072 609.039795,866.928833 
	C607.062134,866.898071 605.106079,865.477295 603.140015,864.700195 
	C602.379700,861.114319 603.669434,858.858215 606.953125,856.971191 
	C608.989136,855.801208 611.298157,853.388672 611.630676,851.246094 
	C614.102783,835.318726 616.129578,819.321838 618.247375,803.340210 
	C618.669678,800.153564 617.720276,797.753906 614.820312,795.709412 
	C611.212097,793.165710 611.770813,789.302490 615.802307,787.513672 
	C617.874512,786.594177 620.288757,786.056335 622.556152,786.030762 
	C634.717346,785.893677 646.881104,785.951050 659.043701,786.003540 
	C660.525330,786.009949 662.028015,786.288330 663.482483,786.612976 
	C672.893372,788.713989 678.018250,793.619080 678.929810,801.320557 
	C679.956055,809.991516 676.028931,816.963867 667.673096,821.162842 
	C665.756470,822.126099 663.739929,822.890686 660.660889,824.228210 
	C672.722717,827.250549 679.179016,834.147400 679.931396,846.214905 
	C681.232727,838.521179 682.801331,830.860413 683.755920,823.123901 
	C684.610657,816.196533 685.017456,809.189026 685.119324,802.209534 
	C685.147888,800.251404 683.431091,798.252747 682.461121,796.299377 
	C681.569153,794.502991 679.615540,792.529114 679.940308,791.024231 
	C680.290527,789.401733 682.651611,787.189270 684.295166,787.044189 
	C692.045776,786.359863 699.849060,786.161072 707.637512,786.037109 
	C729.957520,785.681946 752.281128,785.533508 774.598633,785.073242 
	C778.030396,785.002502 779.450378,786.860474 779.624512,789.326355 
	C780.066406,795.581543 779.927673,801.877747 779.756042,808.823059 
	C775.663452,813.229858 772.910583,812.862549 770.799744,808.220276 
	C769.906982,806.256836 769.312805,804.159973 768.516663,802.149963 
	C766.628906,797.383850 762.671814,796.720154 758.233215,797.012207 
	C753.713867,797.309631 753.209656,800.640991 752.830383,804.088135 
	C752.576599,806.395020 752.306396,808.700195 752.043579,811.006104 
	C751.741394,812.424133 751.439209,813.842224 751.064331,815.951904 
	C751.002747,817.097290 751.013672,817.551086 751.024597,818.004822 
M659.001892,842.213806 
	C658.421021,835.582886 656.394592,832.983704 650.033020,831.678040 
	C647.004333,831.056396 643.824097,831.013489 640.710938,830.996338 
	C634.101746,830.959900 634.101318,831.037170 633.808655,838.798523 
	C633.541077,840.425537 633.190552,842.043945 633.019043,843.681030 
	C631.643738,856.813904 635.538330,860.060913 648.594604,856.706055 
	C655.516541,854.927490 658.868896,850.465271 659.001892,842.213806 
M637.098083,811.596558 
	C636.853760,813.872559 636.609375,816.148621 636.229919,819.683716 
	C641.701416,819.268005 646.855164,819.490540 651.694641,818.363525 
	C658.799805,816.708801 661.903809,810.216431 659.810547,803.144470 
	C658.452271,798.555969 653.559875,796.020874 646.756714,796.140564 
	C641.863342,796.226624 638.948364,798.330078 638.356201,803.356079 
	C638.065002,805.828186 637.589233,808.278503 637.098083,811.596558 
M678.785217,850.919800 
	C678.646667,850.494995 678.508118,850.070190 678.369568,849.645386 
	C678.385559,850.190918 678.401550,850.736450 678.785217,850.919800 
z"/>
<path fill="#035AE0" opacity="1.000000" stroke="none" 
	d="
M494.985779,865.032349 
	C493.200226,861.105957 495.779694,859.503723 498.526062,857.501526 
	C501.910065,855.034607 505.893005,852.520935 507.792206,849.033569 
	C516.774597,832.539795 525.175476,815.727783 533.671082,798.972107 
	C534.937561,796.474304 535.826538,793.727173 536.495789,790.998718 
	C537.363342,787.462280 538.555420,784.803894 542.947510,784.901245 
	C547.853394,785.009888 552.598511,785.323425 554.081238,791.072449 
	C556.528320,800.560364 558.678772,810.124695 560.955383,819.656555 
	C563.310120,829.515198 565.641235,839.379639 568.034851,849.228821 
	C568.884399,852.724731 570.253662,855.698425 574.227661,856.933594 
	C577.145325,857.840515 578.335632,860.174744 576.735840,863.792297 
	C565.319214,869.306458 554.176819,868.932129 542.952698,865.081970 
	C540.415833,859.977539 544.999207,858.780029 548.059814,855.987793 
	C548.201660,853.340149 548.436157,850.971924 547.529663,849.181580 
	C546.538574,847.224487 544.618591,844.549011 542.882874,844.374084 
	C536.963745,843.777222 530.936584,843.921082 524.972046,844.215271 
	C520.609314,844.430359 518.863281,848.048218 517.908569,851.608337 
	C517.478577,853.211670 518.573669,855.223877 518.976746,857.050598 
	C520.932556,858.712219 524.040527,859.787354 521.789673,863.888367 
	C512.683960,868.834412 503.873291,868.524841 494.985779,865.032349 
M542.127563,823.322693 
	C541.156738,819.298340 540.185913,815.273987 539.215027,811.249573 
	C538.545837,811.210571 537.876587,811.171509 537.207336,811.132507 
	C533.946899,818.460754 530.686401,825.788940 527.153076,833.730347 
	C533.403931,833.730347 538.295166,833.730347 543.825134,833.730347 
	C543.257568,830.261108 542.758728,827.212097 542.127563,823.322693 
z"/>
<path fill="#035AE0" opacity="1.000000" stroke="none" 
	d="
M403.071106,810.970459 
	C401.734924,802.200684 405.321869,794.657837 409.332764,787.354248 
	C410.011627,786.118103 412.607025,785.366699 414.323486,785.355103 
	C433.420197,785.225647 452.522980,785.520691 471.612244,785.125732 
	C476.232361,785.030151 477.424377,787.475342 477.675568,790.557739 
	C478.146240,796.333984 477.843506,802.173340 477.567810,808.687378 
	C473.375305,813.283203 470.534485,812.832153 468.409180,807.909363 
	C467.561981,805.947083 466.952728,803.883118 466.138550,801.905273 
	C464.195862,797.186096 460.183533,796.754822 455.841736,797.004517 
	C451.585297,797.249390 451.116272,800.489380 450.623169,803.632996 
	C450.292999,805.737915 450.180237,807.876953 449.970215,810.000732 
	C448.161377,824.093445 446.239868,838.173889 444.698059,852.295776 
	C444.521637,853.911621 446.519775,855.733765 447.418304,857.506592 
	C448.371033,859.386353 449.214783,861.321350 449.759583,863.839478 
	C447.160614,865.303101 444.940765,866.779175 442.649567,866.899780 
	C435.765900,867.262146 428.847382,867.285889 421.957733,867.029968 
	C419.635284,866.943787 417.358643,865.624451 415.061096,864.868652 
	C413.899597,861.269165 414.970245,858.454224 418.528381,857.237610 
	C422.334747,855.936218 423.433044,853.010803 423.960754,849.630005 
	C426.238403,835.038025 428.445984,820.435181 430.769135,805.010010 
	C431.227753,797.178833 428.128906,794.838684 421.662292,797.709290 
	C419.388275,798.718811 417.450043,800.764587 415.734924,802.675171 
	C413.991547,804.617310 412.811066,807.052307 411.205231,809.133545 
	C409.053467,811.922302 406.404633,813.119751 403.071106,810.970459 
z"/>
<path fill="#B24EF1" opacity="1.000000" stroke="none" 
	d="
M603.104858,865.125854 
	C605.106079,865.477295 607.062134,866.898071 609.039795,866.928833 
	C623.954590,867.161072 638.883423,867.442200 653.785950,866.988098 
	C658.926086,866.831543 664.003967,864.631592 669.431458,863.285400 
	C673.267334,868.143250 692.262085,869.496033 703.383789,864.981567 
	C706.766602,869.057739 703.328613,871.107605 700.537964,871.808289 
	C690.989563,874.205933 681.335754,875.110535 671.730774,871.461487 
	C669.566101,870.639038 666.778137,870.152649 664.645264,870.774414 
	C654.777466,873.650940 644.959167,874.497375 634.663696,873.234375 
	C626.783386,872.267517 618.692261,873.081360 610.696777,872.969727 
	C605.100281,872.891602 603.295532,871.028564 603.104858,865.125854 
z"/>
<path fill="#EC7EFD" opacity="1.000000" stroke="none" 
	d="
M345.128967,829.109558 
	C341.588715,836.490540 337.716125,843.843384 333.704712,851.119690 
	C332.919067,852.544739 331.822540,854.083069 330.463287,854.835205 
	C328.768555,855.773071 326.194794,856.870239 324.846832,856.199097 
	C323.478271,855.517639 322.337372,852.699646 322.485657,850.933899 
	C323.236969,841.987061 324.410736,833.074524 325.500977,824.157898 
	C325.884308,821.022583 326.451172,817.909790 327.027832,814.380005 
	C330.185089,816.575134 333.255951,819.168518 336.310242,821.781189 
	C339.132019,824.194946 341.936127,826.629333 345.128967,829.109558 
z"/>
<path fill="#045AE0" opacity="1.000000" stroke="none" 
	d="
M468.956757,844.073242 
	C469.407715,841.017395 469.681915,837.921814 470.358185,834.916687 
	C471.067749,831.763672 473.289520,830.417114 476.555023,830.409790 
	C483.162476,830.395020 489.769287,830.138611 496.376892,830.113281 
	C501.211304,830.094727 501.835571,831.766479 499.678223,839.815918 
	C498.200348,843.927856 495.884491,845.246521 492.147583,845.027893 
	C487.180267,844.737366 482.178772,845.088623 477.197571,844.955322 
	C474.444733,844.881653 471.703308,844.381287 468.956757,844.073242 
z"/>
<path fill="#045AE0" opacity="1.000000" stroke="none" 
	d="
M577.137939,843.669922 
	C577.325378,841.878784 577.292297,840.030518 577.738525,838.306335 
	C579.634033,830.982483 580.503723,830.411316 587.944275,830.439026 
	C592.564758,830.456177 597.191711,830.450073 601.805176,830.230774 
	C609.638794,829.858398 610.086853,830.291931 608.535889,838.771484 
	C607.061340,843.811523 604.267700,845.321106 599.697754,845.036255 
	C594.062866,844.685059 588.379700,845.183411 582.723511,845.052551 
	C580.851990,845.009216 578.999268,844.153992 577.137939,843.669922 
z"/>
<path fill="#B24EF1" opacity="1.000000" stroke="none" 
	d="
M717.101440,865.131226 
	C719.443420,865.513062 721.741821,866.978149 724.060181,867.010376 
	C733.123962,867.136536 742.360168,868.962891 751.491943,864.886475 
	C753.163940,868.903137 751.011963,872.570618 746.284546,872.802490 
	C738.422852,873.188110 730.514404,873.180786 722.653381,872.786194 
	C718.671692,872.586365 716.459656,869.879395 717.101440,865.131226 
z"/>
<path fill="#B24EF1" opacity="1.000000" stroke="none" 
	d="
M415.042664,865.281982 
	C417.358643,865.624451 419.635284,866.943787 421.957733,867.029968 
	C428.847382,867.285889 435.765900,867.262146 442.649567,866.899780 
	C444.940765,866.779175 447.160614,865.303101 449.718140,864.250977 
	C451.008698,869.448181 448.539124,872.635742 442.465607,872.902649 
	C435.584045,873.205139 428.674469,873.139404 421.786407,872.928589 
	C417.376862,872.793762 414.557892,870.647522 415.042664,865.281982 
z"/>
<path fill="#B44EF1" opacity="1.000000" stroke="none" 
	d="
M542.811279,865.398682 
	C554.176819,868.932129 565.319214,869.306458 576.652527,864.122742 
	C578.274353,868.721313 576.627869,872.074280 571.121094,872.567566 
	C563.121094,873.284180 554.988708,873.111938 546.957153,872.609863 
	C543.559448,872.397400 541.422729,869.687683 542.811279,865.398682 
z"/>
<path fill="#B24EF1" opacity="1.000000" stroke="none" 
	d="
M519.030640,856.701538 
	C518.573669,855.223877 517.478577,853.211670 517.908569,851.608337 
	C518.863281,848.048218 520.609314,844.430359 524.972046,844.215271 
	C530.936584,843.921082 536.963745,843.777222 542.882874,844.374084 
	C544.618591,844.549011 546.538574,847.224487 547.529663,849.181580 
	C548.436157,850.971924 548.201660,853.340149 548.207642,855.682983 
	C540.736389,846.966919 524.919434,847.208191 519.030640,856.701538 
z"/>
<path fill="#B64EF2" opacity="1.000000" stroke="none" 
	d="
M577.100647,844.105591 
	C578.999268,844.153992 580.851990,845.009216 582.723511,845.052551 
	C588.379700,845.183411 594.062866,844.685059 599.697754,845.036255 
	C604.267700,845.321106 607.061340,843.811523 608.487915,839.155518 
	C611.882996,842.262573 608.879150,849.859070 603.319153,850.485107 
	C595.778564,851.334229 588.068665,851.077820 580.457886,850.724060 
	C577.091370,850.567627 576.842041,847.370422 577.100647,844.105591 
z"/>
<path fill="#B34EF2" opacity="1.000000" stroke="none" 
	d="
M752.379761,810.911621 
	C752.306396,808.700195 752.576599,806.395020 752.830383,804.088135 
	C753.209656,800.640991 753.713867,797.309631 758.233215,797.012207 
	C762.671814,796.720154 766.628906,797.383850 768.516663,802.149963 
	C769.312805,804.159973 769.906982,806.256836 770.799744,808.220276 
	C772.910583,812.862549 775.663452,813.229858 779.744507,809.242798 
	C782.251343,812.372559 780.535889,814.846375 777.720581,816.335754 
	C774.803467,817.878967 771.880432,817.313843 770.092346,814.082092 
	C769.211060,812.489441 768.426086,810.842957 767.613464,809.212952 
	C766.050598,806.077942 764.079773,803.695435 760.044067,803.965332 
	C756.234863,804.220093 754.504333,806.395447 753.727844,809.809998 
	C753.638611,810.202087 753.065002,810.484009 752.379761,810.911621 
z"/>
<path fill="#B34EF2" opacity="1.000000" stroke="none" 
	d="
M703.631348,820.957153 
	C703.706726,817.935059 704.108337,814.837463 704.577759,811.217407 
	C710.028198,813.506714 712.626587,810.356628 715.349304,806.676086 
	C717.760376,803.416931 720.356812,799.773071 723.752625,797.878479 
	C729.875305,794.462646 733.361328,797.170532 732.929810,804.583191 
	C727.426697,801.997437 722.767883,803.270020 719.456116,808.156738 
	C715.496033,814.000122 709.914490,817.607422 703.631348,820.957153 
z"/>
<path fill="#B24EF2" opacity="1.000000" stroke="none" 
	d="
M450.309631,809.919617 
	C450.180237,807.876953 450.292999,805.737915 450.623169,803.632996 
	C451.116272,800.489380 451.585297,797.249390 455.841736,797.004517 
	C460.183533,796.754822 464.195862,797.186096 466.138550,801.905273 
	C466.952728,803.883118 467.561981,805.947083 468.409180,807.909363 
	C470.534485,812.832153 473.375305,813.283203 477.522095,809.148743 
	C480.395813,812.253052 478.170624,814.701172 475.747070,816.263367 
	C473.214752,817.895752 470.253479,817.468689 468.420380,814.581726 
	C467.276306,812.779846 466.802826,810.411499 465.355591,808.975464 
	C463.161621,806.798340 460.602966,804.289246 457.793427,803.616638 
	C454.596375,802.851501 452.631317,805.770752 451.727905,808.906372 
	C451.617676,809.288940 451.020538,809.531250 450.309631,809.919617 
z"/>
<path fill="#B64EF2" opacity="1.000000" stroke="none" 
	d="
M468.814270,844.389343 
	C471.703308,844.381287 474.444733,844.881653 477.197571,844.955322 
	C482.178772,845.088623 487.180267,844.737366 492.147583,845.027893 
	C495.884491,845.246521 498.200348,843.927856 499.638489,840.216064 
	C500.368195,840.777466 501.353271,841.656067 501.247955,842.374878 
	C500.506836,847.432556 496.521851,850.888245 491.363647,850.973755 
	C485.582306,851.069641 479.788361,851.195862 474.018738,850.917480 
	C470.427429,850.744202 467.552551,849.266174 468.814270,844.389343 
z"/>
<path fill="#B34EF2" opacity="1.000000" stroke="none" 
	d="
M402.815887,811.225586 
	C406.404633,813.119751 409.053467,811.922302 411.205231,809.133545 
	C412.811066,807.052307 413.991547,804.617310 415.734924,802.675171 
	C417.450043,800.764587 419.388275,798.718811 421.662292,797.709290 
	C428.128906,794.838684 431.227753,797.178833 430.742798,804.609253 
	C423.283661,802.561829 420.769592,803.353760 415.868011,809.569824 
	C414.238647,811.636108 412.824097,814.114441 410.713501,815.480957 
	C409.058441,816.552490 406.320068,816.780396 404.383270,816.238464 
	C403.408356,815.965698 403.145508,813.147705 402.815887,811.225586 
z"/>
<path fill="#B24EF1" opacity="1.000000" stroke="none" 
	d="
M494.937469,865.375732 
	C503.873291,868.524841 512.683960,868.834412 521.699036,864.218750 
	C523.614258,868.315063 521.565125,870.764038 517.761902,872.067749 
	C511.487671,874.218567 505.009796,874.183472 498.719574,872.510742 
	C495.844666,871.746155 493.273987,869.605896 494.937469,865.375732 
z"/>
<path fill="#B34EF2" opacity="1.000000" stroke="none" 
	d="
M749.330505,831.937012 
	C749.027283,831.242310 749.029846,830.480164 749.133728,829.348816 
	C749.368835,829.942932 749.502563,830.906189 749.330505,831.937012 
z"/>
<path fill="#B34EF2" opacity="1.000000" stroke="none" 
	d="
M750.274048,824.952393 
	C749.992371,824.550232 749.981995,824.097778 750.059998,823.315674 
	C750.280701,823.624695 750.413086,824.263367 750.274048,824.952393 
z"/>
<path fill="#B34EF2" opacity="1.000000" stroke="none" 
	d="
M751.293457,817.953247 
	C751.013672,817.551086 751.002747,817.097290 751.083130,816.313721 
	C751.303711,816.623169 751.432983,817.262390 751.293457,817.953247 
z"/>
<path fill="#C458FF" opacity="1.000000" stroke="none" 
	d="
M571.000000,294.170959 
	C594.654419,294.173035 617.809082,294.125305 640.963257,294.199402 
	C651.260559,294.232361 658.800720,299.574280 661.027527,308.094238 
	C664.288452,320.570801 656.370605,331.757629 643.512512,332.812347 
	C642.186829,332.921082 640.849426,332.916412 639.517456,332.916504 
	C572.386230,332.921356 505.254974,332.901764 438.123749,332.947235 
	C430.377136,332.952484 423.538727,331.068268 419.044037,324.311523 
	C414.864655,318.028717 414.125244,311.312805 417.974304,304.532623 
	C421.830902,297.739288 427.781189,294.242157 435.571259,294.214081 
	C456.559906,294.138397 477.548981,294.174225 498.537872,294.171295 
	C522.525269,294.167999 546.512634,294.170654 571.000000,294.170959 
z"/>
<path fill="#C355FF" opacity="1.000000" stroke="none" 
	d="
M431.583374,536.968628 
	C420.293121,533.689697 414.578430,525.554993 416.036285,515.421692 
	C417.424072,505.775421 425.540588,498.936432 436.122833,498.928528 
	C504.596222,498.877350 573.069702,498.877502 641.543152,498.931122 
	C652.111084,498.939423 659.346313,504.963806 661.425964,514.999634 
	C663.126831,523.207214 658.406677,532.118591 650.185974,535.686340 
	C648.121033,536.582520 645.695312,537.035400 643.434937,537.036682 
	C572.963196,537.076355 502.491333,537.034729 431.583374,536.968628 
z"/>
<path fill="#C355FF" opacity="1.000000" stroke="none" 
	d="
M659.430359,406.800171 
	C665.682068,421.215179 657.082458,435.024231 641.856750,435.047729 
	C573.049011,435.153809 504.240906,435.124084 435.433014,435.054108 
	C425.552917,435.044067 417.936584,428.397064 416.135651,418.819458 
	C414.527649,410.267578 419.420502,401.552521 428.148224,398.104095 
	C430.535034,397.161102 433.330536,396.920990 435.938965,396.918671 
	C504.580322,396.857758 573.221741,396.918152 641.862976,396.805481 
	C649.698669,396.792633 655.197144,400.102661 659.430359,406.800171 
z"/>
<path fill="#F280FF" opacity="1.000000" stroke="none" 
	d="
M245.257339,703.190125 
	C244.668335,703.298767 243.918869,703.155029 243.048935,702.729126 
	C243.651276,702.610596 244.374069,702.774170 245.257339,703.190125 
z"/>
<path fill="#EF7FFE" opacity="1.000000" stroke="none" 
	d="
M262.740234,814.028259 
	C260.466095,827.291077 258.191956,840.553894 255.532532,853.968506 
	C255.014359,854.006653 254.881454,853.892883 254.748535,853.779114 
	C254.727448,850.314148 257.195129,845.896362 252.952011,843.830811 
	C248.895050,841.855896 247.146439,846.408386 244.622482,848.516235 
	C242.840103,850.004822 241.129135,851.609009 239.209244,852.897827 
	C226.580612,861.374939 213.552353,856.835999 209.910156,842.032166 
	C208.406647,835.921143 209.182877,829.249146 209.350952,822.325928 
	C211.406158,818.775146 212.873367,815.632019 214.686844,812.703430 
	C222.228302,800.524475 235.891022,796.956604 245.679672,808.147461 
	C246.882355,809.522400 248.049957,811.155823 249.602264,811.942627 
	C251.812515,813.063049 254.322769,813.756897 256.782562,814.167053 
	C258.707214,814.487915 260.749969,814.100769 262.740234,814.028259 
z"/>
<path fill="#DD78F2" opacity="1.000000" stroke="none" 
	d="
M262.844360,813.597351 
	C260.749969,814.100769 258.707214,814.487915 256.782562,814.167053 
	C254.322769,813.756897 251.812515,813.063049 249.602264,811.942627 
	C248.049957,811.155823 246.882355,809.522400 245.679672,808.147461 
	C235.891022,796.956604 222.228302,800.524475 214.686844,812.703430 
	C212.873367,815.632019 211.406158,818.775146 209.453613,821.916748 
	C210.374878,808.499023 218.572189,797.965576 229.213562,795.756836 
	C236.098389,794.327698 241.198853,797.054016 245.632217,801.873047 
	C246.195831,802.485657 246.773361,803.096863 247.252670,803.773743 
	C249.760574,807.314941 252.612350,810.886597 257.443024,808.678223 
	C261.902008,806.639587 260.685059,802.328430 260.064758,798.527710 
	C259.989899,798.069031 260.187531,797.565857 260.262634,797.057861 
	C263.775238,798.927124 263.775238,798.927124 262.844360,813.597351 
z"/>
<path fill="#B750F7" opacity="1.000000" stroke="none" 
	d="
M358.356873,834.055542 
	C357.001892,833.126587 355.146759,831.813965 355.341278,831.336670 
	C358.058533,824.668213 361.055847,818.113892 364.568970,810.219360 
	C369.746613,818.187317 368.982117,825.924133 371.139404,834.060364 
	C366.541351,834.060364 362.675568,834.060364 358.356873,834.055542 
z"/>
<path fill="#EF7FFE" opacity="1.000000" stroke="none" 
	d="
M255.344223,854.293823 
	C255.126511,854.803162 254.711853,855.139038 254.297195,855.474854 
	C254.303177,855.030640 254.309158,854.586487 254.531830,853.960693 
	C254.881454,853.892883 255.014359,854.006653 255.344223,854.293823 
z"/>
<path fill="#B950F9" opacity="1.000000" stroke="none" 
	d="
M637.147583,811.167603 
	C637.589233,808.278503 638.065002,805.828186 638.356201,803.356079 
	C638.948364,798.330078 641.863342,796.226624 646.756714,796.140564 
	C653.559875,796.020874 658.452271,798.555969 659.810547,803.144470 
	C661.903809,810.216431 658.799805,816.708801 651.694641,818.363525 
	C646.855164,819.490540 641.701416,819.268005 636.229919,819.683716 
	C636.609375,816.148621 636.853760,813.872559 637.147583,811.167603 
z"/>
<path fill="#BE52FD" opacity="1.000000" stroke="none" 
	d="
M658.884888,843.009033 
	C658.868896,850.465271 655.516541,854.927490 648.594604,856.706055 
	C635.538330,860.060913 631.643738,856.813904 633.019043,843.681030 
	C633.190552,842.043945 633.541077,840.425537 634.318237,838.385254 
	C638.705200,837.530762 642.821594,836.069946 646.399048,836.908447 
	C650.796082,837.939026 654.743225,840.888855 658.884888,843.009033 
z"/>
<path fill="#B44EF1" opacity="1.000000" stroke="none" 
	d="
M658.943359,842.611450 
	C654.743225,840.888855 650.796082,837.939026 646.399048,836.908447 
	C642.821594,836.069946 638.705200,837.530762 634.430481,837.989624 
	C634.101318,831.037170 634.101746,830.959900 640.710938,830.996338 
	C643.824097,831.013489 647.004333,831.056396 650.033020,831.678040 
	C656.394592,832.983704 658.421021,835.582886 658.943359,842.611450 
z"/>
<path fill="#C253FF" opacity="1.000000" stroke="none" 
	d="
M678.601379,851.100891 
	C678.401550,850.736450 678.385559,850.190918 678.369568,849.645386 
	C678.508118,850.070190 678.646667,850.494995 678.601379,851.100891 
z"/>
<path fill="#B750F7" opacity="1.000000" stroke="none" 
	d="
M542.193726,823.742859 
	C542.758728,827.212097 543.257568,830.261108 543.825134,833.730347 
	C538.295166,833.730347 533.403931,833.730347 527.153076,833.730347 
	C530.686401,825.788940 533.946899,818.460754 537.207336,811.132507 
	C537.876587,811.171509 538.545837,811.210571 539.215027,811.249573 
	C540.185913,815.273987 541.156738,819.298340 542.193726,823.742859 
z"/>
</svg>